<svg width="76" height="76" enable-background="new 0 0 300 300" version="1.1" viewBox="0 0 44.53125 44.53125" xmlns="http://www.w3.org/2000/svg" xmlns:cc="http://creativecommons.org/ns#" xmlns:dc="http://purl.org/dc/elements/1.1/" xmlns:rdf="http://www.w3.org/1999/02/22-rdf-syntax-ns#">
<g transform="matrix(.39933 0 0 .39933 -10.105 -65.162)" stroke-width="2.5042">
<path d="m81.356 167.29c-28.318 0-51.356 23.038-51.356 51.356 0 28.318 23.038 51.356 51.356 51.356 28.318 0 51.356-23.038 51.356-51.356 0-28.318-23.038-51.356-51.356-51.356zm-44.508 51.356c0-23.39 18.136-42.624 41.085-44.378v25.413c0 1.8908 1.533 3.4237 3.4237 3.4237s3.4237-1.533 3.4237-3.4237v-25.065c11.439 3.193 20.542 22.058 20.542 44.03 0 21.973-9.1037 40.837-20.542 44.03v-25.651c0-1.8908-1.533-3.4237-3.4237-3.4237s-3.4237 1.533-3.4237 3.4237v25.999c-22.948-1.7542-41.085-20.988-41.085-44.378zm63.973 40.022c1.0066-1.3622 1.9669-2.8404 2.8755-4.4299 5.4638-9.5625 8.4733-22.202 8.4733-35.592 0-13.389-3.0095-26.029-8.4733-35.592-0.90857-1.5895-1.8689-3.0677-2.8755-4.4299 14.814 7.2343 25.044 22.455 25.044 40.022 0 17.566-10.23 32.787-25.044 40.022z" fill="#afc"/>
<path d="m81.356 239.19c-11.327 0-20.542-9.215-20.542-20.542 0-11.327 9.2154-20.542 20.542-20.542s20.542 9.215 20.542 20.542c0 11.327-9.2154 20.542-20.542 20.542zm0-34.237c-7.5515 0-13.695 6.1434-13.695 13.695 0 7.5515 6.1435 13.695 13.695 13.695s13.695-6.1434 13.695-13.695c0-7.5515-6.1435-13.695-13.695-13.695z" fill="#5df"/>
</g>
</svg>
